<svg width="267" height="800" viewBox="0 0 267 800" fill="none" xmlns="http://www.w3.org/2000/svg">
<path d="M20.7881 181.119C16.4966 181.119 13.0068 184.609 13.0068 188.9C13.007 198.584 18.2831 207.537 26.7686 212.277C40.3341 219.857 48.7617 234.202 48.7617 249.713C48.7616 264.981 40.5953 279.123 27.4004 286.79L26.7686 287.149C18.2806 291.888 13.0068 300.842 13.0068 310.525V720.186C13.0068 757.025 42.9772 786.995 79.8164 786.995H186.719C223.56 786.995 253.53 757.025 253.53 720.186L253.528 310.525C253.528 300.844 248.251 291.889 239.766 287.149C226.199 279.568 217.772 265.223 217.771 249.713C217.771 234.445 225.938 220.305 239.133 212.638L239.765 212.277C248.252 207.537 253.528 198.582 253.528 188.9C253.528 184.609 250.039 181.119 245.747 181.119H20.7881ZM24.3369 169.614H242.194V159.361H24.3369V169.614ZM100.669 47.5244C100.669 63.6387 89.3044 77.6848 73.6758 80.9326V80.9336C59.7265 83.8373 45.9309 87.9456 32.6709 93.1475L32.6699 93.1484C27.023 95.3653 22.2067 99.118 18.7129 104.02L18.3789 104.497C14.8643 109.622 13.0049 115.622 13.0049 121.843V147.856H253.526V121.843C253.526 109.104 245.795 97.8373 233.857 93.1484C220.642 87.9572 206.852 83.8481 192.867 80.9336L192.865 80.9326C177.231 77.688 165.861 63.64 165.861 47.5244V38.7969H100.669V47.5244ZM113.593 13.0049C106.484 13.0051 100.67 18.7178 100.67 25.7832V27.29H165.862V25.7832C165.862 18.7176 160.049 13.005 152.938 13.0049H113.593ZM12.832 159.44L11.4785 159.308C5.88626 158.758 1.50009 154.027 1.5 148.295V121.843C1.50002 113.285 4.05597 105.041 8.89062 97.9912V97.9902C13.7115 90.9542 20.4803 85.5758 28.4688 82.4375V82.4385C41.4612 77.3392 54.9503 73.2454 68.6025 70.252L71.335 69.668C81.687 67.5169 89.165 58.1966 89.165 47.5225V25.7832C89.165 12.4028 100.117 1.50017 113.593 1.5H152.938C166.414 1.50015 177.366 12.4028 177.366 25.7832V47.5244C177.366 58.199 184.854 67.5175 195.208 69.667V69.668C209.834 72.715 224.251 77.0111 238.065 82.4375C254.454 88.8787 265.031 104.344 265.031 121.843V148.295C265.031 154.027 260.645 158.758 255.053 159.308L253.699 159.44V171.326L254.515 171.744C260.757 174.948 265.035 181.431 265.035 188.9C265.035 202.522 257.737 215.146 245.943 221.999L245.378 222.321C235.448 227.867 229.278 238.364 229.278 249.713C229.278 261.062 235.448 271.557 245.378 277.104H245.379C257.507 283.877 265.035 296.685 265.037 310.525V720.186C265.037 763.366 229.903 798.5 186.721 798.5H79.8184C36.6365 798.5 1.50391 763.366 1.50391 720.186V310.525C1.50391 296.684 9.03512 283.877 21.1602 277.104C31.0887 271.559 37.2587 261.064 37.2588 249.713C37.2588 238.361 31.0884 227.869 21.1582 222.321C9.03337 215.549 1.50406 202.74 1.50391 188.9C1.50391 181.435 5.78033 174.951 12.0176 171.747L12.832 171.329V159.44Z" stroke="black" stroke-width="3"/>
</svg>
