<svg width="237" height="769" viewBox="0 0 237 769" fill="none" xmlns="http://www.w3.org/2000/svg">
<path d="M56.049 768H123.049H146.049H171.049L187.049 766L199.549 762L206.549 758L215.049 750.5L220.049 745.5L224.049 740L227.549 734.5L231.049 727.5L233.049 720L235.549 709.5V699.5V600.5L234.549 501L235.78 302L235.28 292L232.549 283L227.049 277L219.049 271.5L205.049 257L200.549 246L199.549 235L200.049 226L202.549 217L209.049 205L216.049 198.5L226.049 191.5L232.049 185L235.549 177L234.549 170L232.049 165L226.049 148L233.549 131.5L235.549 123.5V110.5L234.549 103.5L233.549 96.5L230.549 92L228.549 88L223.549 84L216.549 79.5L206.049 76L185.049 70L167.549 65L156.549 56.5L150.549 47L148.549 40.5L147.049 35V26.5L146.049 18V8L144.049 3L137.549 0.5H123.049H115.049H103.549H96.049L91.549 3L89.549 8V18V26.5L87.549 35L83.549 50.5L76.549 58.5L68.049 65.5L50.549 70L23.049 77.5L13.049 83.5L6.04895 89L1.04895 99.5L0.54895 112.5V122V127L3.54895 131.5L8.54895 148L3.54895 168.5L0.54895 172.5L1.54895 176L3.54895 182L6.04895 187.5L11.549 192L16.049 195L20.549 198.5L27.549 205.5L31.549 211L34.049 216.5L36.549 223V231.5V241L31.549 256L19.549 270.5L8.54895 277.5L3.04895 284.5L1.04895 292L1.54895 301.5V666.5V687L1.04895 703.5L1.54895 711.5L2.54895 719L6.04895 727.5L9.04895 734.5L11.549 740L16.549 745L23.549 752L28.549 757L34.549 760.5L44.549 765L56.049 768Z" fill="black" stroke="black"/>
</svg>
