<svg width="236" height="768" viewBox="0 0 236 768" fill="none" xmlns="http://www.w3.org/2000/svg">
<path d="M55.5 767.5H122.5H145.5H170.5L186.5 765.5L199 761.5L206 757.5L214.5 750L219.5 745L223.5 739.5L227 734L230.5 727L232.5 719.5L235 709V699V600L234 500.5L235.5 301.5V291.5L232 282.5L226.5 276.5L218.5 271L204.5 256.5L200 245.5L199 234.5L199.5 225.5L202 216.5L208.5 204.5L215.5 198L225.5 191L231.5 184.5L235 176.5L234 169.5L231.5 164.5L225.5 147.5L233 131L235 123V110L234 103L233 96L230 91.5L228 87.5L223 83.5L216 79L205.5 75.5L184.5 69.5L167 64.5L156 56L150 46.5L148 40L146.5 34.5V26L145.5 17.5V7.5L143.5 2.5L137 0H122.5H114.5H103H95.5L91 2.5L89 7.5V17.5V26L87 34.5L83 50L76 58L67.5 65L50 69.5L22.5 77L12.5 83L5.5 88.5L0.5 99L0 112V121.5V126.5L3 131L8 147.5L3 168L0 172L1 175.5L3 181.5L5.5 187L11 191.5L15.5 194.5L20 198L27 205L31 210.5L33.5 216L36 222.5V231V240.5L31 255.5L19 270L8 277L2.5 284L0.5 291.5L1 301V666V686.5L0.5 703L1 711L2 718.5L5.5 727L8.5 734L11 739.5L16 744.5L23 751.5L28 756.5L34 760L44 764.5L55.5 767.5Z" fill="black"/>
</svg>
